<svg width="56" height="8" viewBox="0 0 56 8" fill="none" xmlns="http://www.w3.org/2000/svg">
<path d="M4.02488 3.96576L4.08946 3.97093L4.04026 4.01308L4.05529 4.0761L4 4.04233L3.94471 4.0761L3.95974 4.01308L3.91054 3.97093L3.97512 3.96576L4 3.90594L4.02488 3.96576Z" fill="#F1C644" stroke="#F1C644" stroke-width="3"/>
<path d="M16.0249 3.96576L16.0895 3.97093L16.0403 4.01308L16.0553 4.0761L16 4.04233L15.9447 4.0761L15.9597 4.01308L15.9105 3.97093L15.9751 3.96576L16 3.90594L16.0249 3.96576Z" fill="#F1C644" stroke="#F1C644" stroke-width="3"/>
<path d="M28.0249 3.96576L28.0895 3.97093L28.0403 4.01308L28.0553 4.0761L28 4.04233L27.9447 4.0761L27.9597 4.01308L27.9105 3.97093L27.9751 3.96576L28 3.90594L28.0249 3.96576Z" fill="#F1C644" stroke="#F1C644" stroke-width="3"/>
<path d="M40.0249 3.96576L40.0895 3.97093L40.0403 4.01308L40.0553 4.0761L40 4.04233L39.9447 4.0761L39.9597 4.01308L39.9105 3.97093L39.9751 3.96576L40 3.90594L40.0249 3.96576Z" fill="#F1C644" stroke="#F1C644" stroke-width="3"/>
<path d="M52 0L53.058 2.54377L55.8042 2.76393L53.7119 4.55623L54.3511 7.23607L52 5.8L49.6489 7.23607L50.2881 4.55623L48.1958 2.76393L50.942 2.54377L52 0Z" fill="#D4D4D4"/>
</svg>
