<svg width="84" height="11" viewBox="0 0 84 11" fill="none" xmlns="http://www.w3.org/2000/svg">
<path d="M6 3.63028L6.22105 4.11747L6.58899 4.92838L7.47708 4.99365L7.73386 5.01252L7.64148 5.08506L6.86878 5.69179L7.1162 6.64257L7.18878 6.92148L6.7328 6.66618L6 6.25589L5.2672 6.66618L4.81122 6.92148L4.8838 6.64257L5.13122 5.69179L4.35852 5.08506L4.26614 5.01252L4.52292 4.99365L5.41101 4.92838L5.77895 4.11747L6 3.63028Z" fill="#F1C644" stroke="#F1C644" stroke-width="3"/>
<path d="M24 3.63028L24.2211 4.11747L24.589 4.92838L25.4771 4.99365L25.7339 5.01252L25.6415 5.08506L24.8688 5.69179L25.1162 6.64257L25.1888 6.92148L24.7328 6.66618L24 6.25589L23.2672 6.66618L22.8112 6.92148L22.8838 6.64257L23.1312 5.69179L22.3585 5.08506L22.2661 5.01252L22.5229 4.99365L23.411 4.92838L23.7789 4.11747L24 3.63028Z" fill="#F1C644" stroke="#F1C644" stroke-width="3"/>
<path d="M42 3.63028L42.2211 4.11747L42.589 4.92838L43.4771 4.99365L43.7339 5.01252L43.6415 5.08506L42.8688 5.69179L43.1162 6.64257L43.1888 6.92148L42.7328 6.66618L42 6.25589L41.2672 6.66618L40.8112 6.92148L40.8838 6.64257L41.1312 5.69179L40.3585 5.08506L40.2661 5.01252L40.5229 4.99365L41.411 4.92838L41.7789 4.11747L42 3.63028Z" fill="#F1C644" stroke="#F1C644" stroke-width="3"/>
<path d="M60 3.63028L60.2211 4.11747L60.589 4.92838L61.4771 4.99365L61.7339 5.01252L61.6415 5.08506L60.8688 5.69179L61.1162 6.64257L61.1888 6.92148L60.7328 6.66618L60 6.25589L59.2672 6.66618L58.8112 6.92148L58.8838 6.64257L59.1312 5.69179L58.3585 5.08506L58.2661 5.01252L58.5229 4.99365L59.411 4.92838L59.7789 4.11747L60 3.63028Z" fill="#F1C644" stroke="#F1C644" stroke-width="3"/>
<path d="M78 0L79.587 3.49768L83.7063 3.80041L80.5679 6.26482L81.5267 9.94959L78 7.975L74.4733 9.94959L75.4321 6.26482L72.2937 3.80041L76.413 3.49768L78 0Z" fill="#D4D4D4"/>
</svg>
